<?xml version="1.0" encoding="UTF-8"?><svg xmlns="http://www.w3.org/2000/svg" xmlns:xlink="http://www.w3.org/1999/xlink" fill-opacity="1" color-rendering="auto" color-interpolation="auto" text-rendering="auto" stroke="black" stroke-linecap="square" width="975" stroke-miterlimit="10" shape-rendering="auto" stroke-opacity="1" fill="black" stroke-dasharray="none" font-weight="normal" stroke-width="1" height="611" font-family="'Dialog'" font-style="normal" stroke-linejoin="miter" font-size="12px" stroke-dashoffset="0" image-rendering="auto">
  <!--Generated by ySVG 2.5-->
  <defs id="genericDefs"/>
  <g>
    <defs id="defs1">
      <clipPath clipPathUnits="userSpaceOnUse" id="clipPath1">
        <path d="M0 0 L975 0 L975 611 L0 611 L0 0 Z"/>
      </clipPath>
      <clipPath clipPathUnits="userSpaceOnUse" id="clipPath2">
        <path d="M37 31 L1012 31 L1012 642 L37 642 L37 31 Z"/>
      </clipPath>
      <clipPath clipPathUnits="userSpaceOnUse" id="clipPath3">
        <path d="M132.4219 -18.2271 L132.4219 956.7729 L-478.5781 956.7729 L-478.5781 -18.2271 L132.4219 -18.2271 Z"/>
      </clipPath>
      <clipPath clipPathUnits="userSpaceOnUse" id="clipPath4">
        <path d="M332.8691 -18.2271 L332.8691 956.7729 L-278.1309 956.7729 L-278.1309 -18.2271 L332.8691 -18.2271 Z"/>
      </clipPath>
      <clipPath clipPathUnits="userSpaceOnUse" id="clipPath5">
        <path d="M552.7539 -18.2271 L552.7539 956.7729 L-58.2461 956.7729 L-58.2461 -18.2271 L552.7539 -18.2271 Z"/>
      </clipPath>
    </defs>
    <g fill="white" text-rendering="geometricPrecision" shape-rendering="geometricPrecision" transform="translate(-37,-31)" stroke="white">
      <rect x="37" width="975" height="611" y="31" clip-path="url(#clipPath2)" stroke="none"/>
    </g>
    <g fill="rgb(236,245,255)" text-rendering="geometricPrecision" shape-rendering="geometricPrecision" transform="matrix(1,0,0,1,-37,-31)" stroke="rgb(236,245,255)">
      <path d="M52.2271 46.75 L52.2271 76.75 L996.7729 76.75 L996.7729 46.75 Z" stroke="none" clip-path="url(#clipPath2)"/>
      <rect x="52.2271" width="944.5459" height="549.5" y="76.75" clip-path="url(#clipPath2)" stroke="none"/>
      <line clip-path="url(#clipPath2)" fill="rgb(113,146,178)" x1="76.2271" x2="996.7729" y1="76.75" y2="76.75" stroke="none"/>
      <rect x="52.2271" y="76.75" clip-path="url(#clipPath2)" fill="rgb(196,215,237)" width="24" height="115.25" stroke="none"/>
      <rect x="76.2271" y="76.75" clip-path="url(#clipPath2)" fill="rgb(196,215,237)" width="920.5459" height="115.25" stroke="none"/>
      <rect x="52.2271" y="192" clip-path="url(#clipPath2)" fill="rgb(171,200,226)" width="24" height="288" stroke="none"/>
      <rect x="76.2271" y="192" clip-path="url(#clipPath2)" fill="rgb(171,200,226)" width="920.5459" height="288" stroke="none"/>
      <rect x="52.2271" y="480" clip-path="url(#clipPath2)" fill="rgb(196,215,237)" width="24" height="146.25" stroke="none"/>
      <rect x="76.2271" y="480" clip-path="url(#clipPath2)" fill="rgb(196,215,237)" width="920.5459" height="146.25" stroke="none"/>
    </g>
    <g text-rendering="geometricPrecision" stroke-miterlimit="1.45" shape-rendering="geometricPrecision" transform="matrix(1,0,0,1,-37,-31)" stroke-linecap="butt">
      <rect fill="none" x="52.2271" width="944.5459" height="579.5" y="46.75" clip-path="url(#clipPath2)"/>
      <rect fill="none" x="76.2271" width="920.5459" height="549.5" y="76.75" clip-path="url(#clipPath2)"/>
      <rect fill="none" x="52.2271" width="944.5459" height="115.25" y="76.75" clip-path="url(#clipPath2)"/>
      <rect fill="none" x="52.2271" width="944.5459" height="288" y="192" clip-path="url(#clipPath2)"/>
      <rect fill="none" x="52.2271" width="944.5459" height="146.25" y="480" clip-path="url(#clipPath2)"/>
    </g>
    <g font-size="15px" stroke-linecap="butt" transform="matrix(1,0,0,1,-37,-31)" text-rendering="geometricPrecision" font-family="sans-serif" shape-rendering="geometricPrecision" stroke-miterlimit="1.45">
      <text x="450.4338" xml:space="preserve" y="66.6733" clip-path="url(#clipPath2)" stroke="none">3 layer architecture</text>
    </g>
    <g text-rendering="geometricPrecision" stroke-miterlimit="1.45" shape-rendering="geometricPrecision" font-family="sans-serif" transform="matrix(-0,-1,1,-0,18.2271,132.4219)" stroke-linecap="butt">
      <text x="2" xml:space="preserve" y="13.1387" clip-path="url(#clipPath3)" stroke="none">Frontend</text>
    </g>
    <g text-rendering="geometricPrecision" stroke-miterlimit="1.45" shape-rendering="geometricPrecision" font-family="sans-serif" transform="matrix(-0,-1,1,-0,18.2271,332.8691)" stroke-linecap="butt">
      <text x="2" xml:space="preserve" y="13.1387" clip-path="url(#clipPath4)" stroke="none">Backend</text>
    </g>
    <g text-rendering="geometricPrecision" stroke-miterlimit="1.45" shape-rendering="geometricPrecision" font-family="sans-serif" transform="matrix(-0,-1,1,-0,18.2271,552.7539)" stroke-linecap="butt">
      <text x="2" xml:space="preserve" y="13.1387" clip-path="url(#clipPath5)" stroke="none">Database</text>
    </g>
    <g fill="rgb(255,204,0)" text-rendering="geometricPrecision" shape-rendering="geometricPrecision" transform="matrix(1,0,0,1,-37,-31)" stroke="rgb(255,204,0)">
      <rect x="174.0918" width="130" height="65" y="102.25" clip-path="url(#clipPath2)" stroke="none"/>
    </g>
    <g text-rendering="geometricPrecision" stroke-miterlimit="1.45" shape-rendering="geometricPrecision" transform="matrix(1,0,0,1,-37,-31)" stroke-linecap="butt">
      <rect fill="none" x="174.0918" width="130" height="65" y="102.25" clip-path="url(#clipPath2)"/>
      <text x="223.6377" xml:space="preserve" y="138.9043" clip-path="url(#clipPath2)" font-family="sans-serif" stroke="none">Mask</text>
    </g>
    <g fill="rgb(255,204,0)" text-rendering="geometricPrecision" shape-rendering="geometricPrecision" transform="matrix(1,0,0,1,-37,-31)" stroke="rgb(255,204,0)">
      <rect x="319.2271" width="130" height="76" y="265.5" clip-path="url(#clipPath2)" stroke="none"/>
    </g>
    <g text-rendering="geometricPrecision" stroke-miterlimit="1.45" shape-rendering="geometricPrecision" transform="matrix(1,0,0,1,-37,-31)" stroke-linecap="butt">
      <rect fill="none" x="319.2271" width="130" height="76" y="265.5" clip-path="url(#clipPath2)"/>
      <text x="362.0522" xml:space="preserve" y="307.6543" clip-path="url(#clipPath2)" font-family="sans-serif" stroke="none">Service</text>
    </g>
    <g fill="rgb(255,204,0)" text-rendering="geometricPrecision" shape-rendering="geometricPrecision" transform="matrix(1,0,0,1,-37,-31)" stroke="rgb(255,204,0)">
      <rect x="99.7729" width="130" height="76" y="265.5" clip-path="url(#clipPath2)" stroke="none"/>
    </g>
    <g text-rendering="geometricPrecision" stroke-miterlimit="1.45" shape-rendering="geometricPrecision" transform="matrix(1,0,0,1,-37,-31)" stroke-linecap="butt">
      <rect fill="none" x="99.7729" width="130" height="76" y="265.5" clip-path="url(#clipPath2)"/>
      <text x="142.5981" xml:space="preserve" y="307.6543" clip-path="url(#clipPath2)" font-family="sans-serif" stroke="none">Service</text>
    </g>
    <g fill="rgb(255,204,0)" text-rendering="geometricPrecision" shape-rendering="geometricPrecision" transform="matrix(1,0,0,1,-37,-31)" stroke="rgb(255,204,0)">
      <rect x="830.8647" width="130" height="76" y="371.5" clip-path="url(#clipPath2)" stroke="none"/>
    </g>
    <g text-rendering="geometricPrecision" stroke-miterlimit="1.45" shape-rendering="geometricPrecision" transform="matrix(1,0,0,1,-37,-31)" stroke-linecap="butt">
      <rect fill="none" x="830.8647" width="130" height="76" y="371.5" clip-path="url(#clipPath2)"/>
      <text x="841.0093" xml:space="preserve" y="413.6543" clip-path="url(#clipPath2)" font-family="sans-serif" stroke="none">PermissionService</text>
    </g>
    <g fill="rgb(255,204,0)" text-rendering="geometricPrecision" shape-rendering="geometricPrecision" transform="matrix(1,0,0,1,-37,-31)" stroke="rgb(255,204,0)">
      <rect x="668.6812" width="130" height="76" y="371.5" clip-path="url(#clipPath2)" stroke="none"/>
    </g>
    <g text-rendering="geometricPrecision" stroke-miterlimit="1.45" shape-rendering="geometricPrecision" transform="matrix(1,0,0,1,-37,-31)" stroke-linecap="butt">
      <rect fill="none" x="668.6812" width="130" height="76" y="371.5" clip-path="url(#clipPath2)"/>
      <text x="688.5083" xml:space="preserve" y="413.6543" clip-path="url(#clipPath2)" font-family="sans-serif" stroke="none">ProcessService</text>
    </g>
    <g fill="rgb(255,204,0)" text-rendering="geometricPrecision" shape-rendering="geometricPrecision" transform="matrix(1,0,0,1,-37,-31)" stroke="rgb(255,204,0)">
      <rect x="221.0918" width="130" height="76" y="517" clip-path="url(#clipPath2)" stroke="none"/>
    </g>
    <g text-rendering="geometricPrecision" stroke-miterlimit="1.45" shape-rendering="geometricPrecision" transform="matrix(1,0,0,1,-37,-31)" stroke-linecap="butt">
      <rect fill="none" x="221.0918" width="130" height="76" y="517" clip-path="url(#clipPath2)"/>
      <text x="257.4629" xml:space="preserve" y="559.1543" clip-path="url(#clipPath2)" font-family="sans-serif" stroke="none">Database</text>
    </g>
    <g fill="rgb(255,204,0)" text-rendering="geometricPrecision" shape-rendering="geometricPrecision" transform="matrix(1,0,0,1,-37,-31)" stroke="rgb(255,204,0)">
      <rect x="551.8647" width="130" height="76" y="517" clip-path="url(#clipPath2)" stroke="none"/>
    </g>
    <g text-rendering="geometricPrecision" stroke-miterlimit="1.45" shape-rendering="geometricPrecision" transform="matrix(1,0,0,1,-37,-31)" stroke-linecap="butt">
      <rect fill="none" x="551.8647" width="130" height="76" y="517" clip-path="url(#clipPath2)"/>
      <text x="569.4917" xml:space="preserve" y="559.1543" clip-path="url(#clipPath2)" font-family="sans-serif" stroke="none">ExternalSystem</text>
    </g>
    <g fill="rgb(255,204,0)" text-rendering="geometricPrecision" shape-rendering="geometricPrecision" transform="matrix(1,0,0,1,-37,-31)" stroke="rgb(255,204,0)">
      <rect x="600.0459" width="130" height="76" y="154.5" clip-path="url(#clipPath2)" stroke="none"/>
    </g>
    <g text-rendering="geometricPrecision" stroke-miterlimit="1.45" shape-rendering="geometricPrecision" transform="matrix(1,0,0,1,-37,-31)" stroke-linecap="butt">
      <rect fill="none" x="600.0459" width="130" height="76" y="154.5" clip-path="url(#clipPath2)"/>
      <text x="629.4385" xml:space="preserve" y="196.6543" clip-path="url(#clipPath2)" font-family="sans-serif" stroke="none">WebService</text>
    </g>
    <g fill="rgb(255,204,0)" text-rendering="geometricPrecision" shape-rendering="geometricPrecision" transform="matrix(1,0,0,1,-37,-31)" stroke="rgb(255,204,0)">
      <rect x="133.2947" width="130" height="76" y="371.5" clip-path="url(#clipPath2)" stroke="none"/>
    </g>
    <g text-rendering="geometricPrecision" stroke-miterlimit="1.45" shape-rendering="geometricPrecision" transform="matrix(1,0,0,1,-37,-31)" stroke-linecap="butt">
      <rect fill="none" x="133.2947" width="130" height="76" y="371.5" clip-path="url(#clipPath2)"/>
      <text x="176.1199" xml:space="preserve" y="413.6543" clip-path="url(#clipPath2)" font-family="sans-serif" stroke="none">Service</text>
    </g>
    <g fill="rgb(255,204,0)" text-rendering="geometricPrecision" shape-rendering="geometricPrecision" transform="matrix(1,0,0,1,-37,-31)" stroke="rgb(255,204,0)">
      <rect x="494.6135" width="130" height="76" y="371.5" clip-path="url(#clipPath2)" stroke="none"/>
    </g>
    <g text-rendering="geometricPrecision" stroke-miterlimit="1.45" shape-rendering="geometricPrecision" transform="matrix(1,0,0,1,-37,-31)" stroke-linecap="butt">
      <rect fill="none" x="494.6135" width="130" height="76" y="371.5" clip-path="url(#clipPath2)"/>
      <text x="523.7629" xml:space="preserve" y="413.6543" clip-path="url(#clipPath2)" font-family="sans-serif" stroke="none">UserService</text>
    </g>
    <g fill="rgb(255,204,0)" text-rendering="geometricPrecision" shape-rendering="geometricPrecision" transform="matrix(1,0,0,1,-37,-31)" stroke="rgb(255,204,0)">
      <rect x="374.4541" width="130" height="65" y="102.25" clip-path="url(#clipPath2)" stroke="none"/>
    </g>
    <g text-rendering="geometricPrecision" stroke-miterlimit="1.45" shape-rendering="geometricPrecision" transform="matrix(1,0,0,1,-37,-31)" stroke-linecap="butt">
      <rect fill="none" x="374.4541" width="130" height="65" y="102.25" clip-path="url(#clipPath2)"/>
      <text x="424" xml:space="preserve" y="138.9043" clip-path="url(#clipPath2)" font-family="sans-serif" stroke="none">Mask</text>
    </g>
    <g fill="rgb(255,204,0)" text-rendering="geometricPrecision" shape-rendering="geometricPrecision" transform="matrix(1,0,0,1,-37,-31)" stroke="rgb(255,204,0)">
      <rect x="293.2947" width="130" height="76" y="371.5" clip-path="url(#clipPath2)" stroke="none"/>
    </g>
    <g text-rendering="geometricPrecision" stroke-miterlimit="1.45" shape-rendering="geometricPrecision" transform="matrix(1,0,0,1,-37,-31)" stroke-linecap="butt">
      <rect fill="none" x="293.2947" width="130" height="76" y="371.5" clip-path="url(#clipPath2)"/>
      <text x="336.1199" xml:space="preserve" y="413.6543" clip-path="url(#clipPath2)" font-family="sans-serif" stroke="none">Service</text>
    </g>
    <g fill="rgb(255,204,0)" text-rendering="geometricPrecision" shape-rendering="geometricPrecision" transform="matrix(1,0,0,1,-37,-31)" stroke="rgb(255,204,0)">
      <rect x="538.6812" width="130" height="76" y="265.5" clip-path="url(#clipPath2)" stroke="none"/>
    </g>
    <g text-rendering="geometricPrecision" stroke-miterlimit="1.45" shape-rendering="geometricPrecision" transform="matrix(1,0,0,1,-37,-31)" stroke-linecap="butt">
      <rect fill="none" x="538.6812" width="130" height="76" y="265.5" clip-path="url(#clipPath2)"/>
      <text x="581.5063" xml:space="preserve" y="307.6543" clip-path="url(#clipPath2)" font-family="sans-serif" stroke="none">Service</text>
    </g>
    <g fill="rgb(255,204,0)" text-rendering="geometricPrecision" shape-rendering="geometricPrecision" transform="matrix(1,0,0,1,-37,-31)" stroke="rgb(255,204,0)">
      <rect x="757.0459" width="130" height="76" y="517" clip-path="url(#clipPath2)" stroke="none"/>
    </g>
    <g text-rendering="geometricPrecision" stroke-miterlimit="1.45" shape-rendering="geometricPrecision" transform="matrix(1,0,0,1,-37,-31)" stroke-linecap="butt">
      <rect fill="none" x="757.0459" width="130" height="76" y="517" clip-path="url(#clipPath2)"/>
      <text x="774.6729" xml:space="preserve" y="559.1543" clip-path="url(#clipPath2)" font-family="sans-serif" stroke="none">ExternalSystem</text>
    </g>
  </g>
</svg>
