<?xml version="1.0" encoding="UTF-8"?><svg xmlns="http://www.w3.org/2000/svg" xmlns:xlink="http://www.w3.org/1999/xlink" fill-opacity="1" color-rendering="auto" color-interpolation="auto" text-rendering="auto" stroke="black" stroke-linecap="square" width="793" stroke-miterlimit="10" shape-rendering="auto" stroke-opacity="1" fill="black" stroke-dasharray="none" font-weight="normal" stroke-width="1" height="335" font-family="'Dialog'" font-style="normal" stroke-linejoin="miter" font-size="12px" stroke-dashoffset="0" image-rendering="auto">
  <!--Generated by ySVG 2.5-->
  <defs id="genericDefs"/>
  <g>
    <defs id="defs1">
      <clipPath clipPathUnits="userSpaceOnUse" id="clipPath1">
        <path d="M0 0 L793 0 L793 335 L0 335 L0 0 Z"/>
      </clipPath>
      <clipPath clipPathUnits="userSpaceOnUse" id="clipPath2">
        <path d="M279 188 L1072 188 L1072 523 L279 523 L279 188 Z"/>
      </clipPath>
    </defs>
    <g fill="white" text-rendering="geometricPrecision" shape-rendering="geometricPrecision" transform="translate(-279,-188)" stroke="white">
      <rect x="279" width="793" height="335" y="188" clip-path="url(#clipPath2)" stroke="none"/>
    </g>
    <g fill="rgb(255,204,0)" text-rendering="geometricPrecision" shape-rendering="geometricPrecision" transform="matrix(1,0,0,1,-279,-188)" stroke="rgb(255,204,0)">
      <rect x="655" width="72" height="39" y="203" clip-path="url(#clipPath2)" stroke="none"/>
    </g>
    <g text-rendering="geometricPrecision" stroke-miterlimit="1.45" shape-rendering="geometricPrecision" transform="matrix(1,0,0,1,-279,-188)" stroke-linecap="butt">
      <rect fill="none" x="655" width="72" height="39" y="203" clip-path="url(#clipPath2)"/>
      <text x="670.1934" xml:space="preserve" y="226.6543" clip-path="url(#clipPath2)" font-family="sans-serif" stroke="none">XHTML</text>
    </g>
    <g fill="rgb(255,204,0)" text-rendering="geometricPrecision" shape-rendering="geometricPrecision" transform="matrix(1,0,0,1,-279,-188)" stroke="rgb(255,204,0)">
      <rect x="655" width="72" height="39" y="331" clip-path="url(#clipPath2)" stroke="none"/>
    </g>
    <g text-rendering="geometricPrecision" stroke-miterlimit="1.45" shape-rendering="geometricPrecision" transform="matrix(1,0,0,1,-279,-188)" stroke-linecap="butt">
      <rect fill="none" x="655" width="72" height="39" y="331" clip-path="url(#clipPath2)"/>
      <text x="661.3545" xml:space="preserve" y="354.6543" clip-path="url(#clipPath2)" font-family="sans-serif" stroke="none">Controller</text>
    </g>
    <g fill="rgb(255,204,0)" text-rendering="geometricPrecision" shape-rendering="geometricPrecision" transform="matrix(1,0,0,1,-279,-188)" stroke="rgb(255,204,0)">
      <rect x="484" width="72" height="39" y="269" clip-path="url(#clipPath2)" stroke="none"/>
    </g>
    <g text-rendering="geometricPrecision" stroke-miterlimit="1.45" shape-rendering="geometricPrecision" transform="matrix(1,0,0,1,-279,-188)" stroke-linecap="butt">
      <rect fill="none" x="484" width="72" height="39" y="269" clip-path="url(#clipPath2)"/>
      <text x="501.9854" xml:space="preserve" y="292.6543" clip-path="url(#clipPath2)" font-family="sans-serif" stroke="none">Model</text>
    </g>
    <g fill="rgb(255,204,0)" text-rendering="geometricPrecision" shape-rendering="geometricPrecision" transform="matrix(1,0,0,1,-279,-188)" stroke="rgb(255,204,0)">
      <rect x="301" width="72" height="39" y="331" clip-path="url(#clipPath2)" stroke="none"/>
    </g>
    <g text-rendering="geometricPrecision" stroke-miterlimit="1.45" shape-rendering="geometricPrecision" transform="matrix(1,0,0,1,-279,-188)" stroke-linecap="butt">
      <rect fill="none" x="301" width="72" height="39" y="331" clip-path="url(#clipPath2)"/>
      <text x="310.1758" xml:space="preserve" y="354.6543" clip-path="url(#clipPath2)" font-family="sans-serif" stroke="none">Producer</text>
    </g>
    <g fill="rgb(255,204,0)" text-rendering="geometricPrecision" shape-rendering="geometricPrecision" transform="matrix(1,0,0,1,-279,-188)" stroke="rgb(255,204,0)">
      <rect x="826" width="72" height="39" y="269" clip-path="url(#clipPath2)" stroke="none"/>
    </g>
    <g text-rendering="geometricPrecision" stroke-miterlimit="1.45" shape-rendering="geometricPrecision" transform="matrix(1,0,0,1,-279,-188)" stroke-linecap="butt">
      <rect fill="none" x="826" width="72" height="39" y="269" clip-path="url(#clipPath2)"/>
      <text x="837.8242" xml:space="preserve" y="292.6543" clip-path="url(#clipPath2)" font-family="sans-serif" stroke="none">UIModel</text>
    </g>
    <g fill="rgb(255,204,0)" text-rendering="geometricPrecision" shape-rendering="geometricPrecision" transform="matrix(1,0,0,1,-279,-188)" stroke="rgb(255,204,0)">
      <rect x="985" width="72" height="39" y="331" clip-path="url(#clipPath2)" stroke="none"/>
    </g>
    <g text-rendering="geometricPrecision" stroke-miterlimit="1.45" shape-rendering="geometricPrecision" transform="matrix(1,0,0,1,-279,-188)" stroke-linecap="butt">
      <rect fill="none" x="985" width="72" height="39" y="331" clip-path="url(#clipPath2)"/>
      <text x="994.1758" xml:space="preserve" y="354.6543" clip-path="url(#clipPath2)" font-family="sans-serif" stroke="none">Producer</text>
    </g>
    <g fill="silver" text-rendering="geometricPrecision" shape-rendering="geometricPrecision" transform="matrix(1,0,0,1,-279,-188)" stroke="silver">
      <rect x="484" width="72" height="39" y="449" clip-path="url(#clipPath2)" stroke="none"/>
    </g>
    <g text-rendering="geometricPrecision" stroke-miterlimit="1.45" shape-rendering="geometricPrecision" transform="matrix(1,0,0,1,-279,-188)" stroke-linecap="butt">
      <rect fill="none" x="484" width="72" height="39" y="449" clip-path="url(#clipPath2)"/>
      <text x="505.6738" xml:space="preserve" y="472.6543" clip-path="url(#clipPath2)" font-family="sans-serif" stroke="none">Data</text>
    </g>
    <g fill="silver" text-rendering="geometricPrecision" shape-rendering="geometricPrecision" transform="matrix(1,0,0,1,-279,-188)" stroke="silver">
      <rect x="301" width="72" height="39" y="449" clip-path="url(#clipPath2)" stroke="none"/>
    </g>
    <g text-rendering="geometricPrecision" stroke-miterlimit="1.45" shape-rendering="geometricPrecision" transform="matrix(1,0,0,1,-279,-188)" stroke-linecap="butt">
      <rect fill="none" x="301" width="72" height="39" y="449" clip-path="url(#clipPath2)"/>
      <text x="327.3232" xml:space="preserve" y="472.6543" clip-path="url(#clipPath2)" font-family="sans-serif" stroke="none">EJB</text>
    </g>
    <g fill="silver" text-rendering="geometricPrecision" shape-rendering="geometricPrecision" transform="matrix(1,0,0,1,-279,-188)" stroke="silver">
      <rect x="655" width="72" height="39" y="449" clip-path="url(#clipPath2)" stroke="none"/>
    </g>
    <g text-rendering="geometricPrecision" stroke-miterlimit="1.45" shape-rendering="geometricPrecision" transform="matrix(1,0,0,1,-279,-188)" stroke-linecap="butt">
      <rect fill="none" x="655" width="72" height="39" y="449" clip-path="url(#clipPath2)"/>
      <text x="681.3232" xml:space="preserve" y="472.6543" clip-path="url(#clipPath2)" font-family="sans-serif" stroke="none">EJB</text>
    </g>
    <g fill="silver" text-rendering="geometricPrecision" shape-rendering="geometricPrecision" transform="matrix(1,0,0,1,-279,-188)" stroke="silver">
      <rect x="985" width="72" height="39" y="449" clip-path="url(#clipPath2)" stroke="none"/>
    </g>
    <g text-rendering="geometricPrecision" stroke-miterlimit="1.45" shape-rendering="geometricPrecision" transform="matrix(1,0,0,1,-279,-188)" stroke-linecap="butt">
      <rect fill="none" x="985" width="72" height="39" y="449" clip-path="url(#clipPath2)"/>
      <text x="1011.3232" xml:space="preserve" y="472.6543" clip-path="url(#clipPath2)" font-family="sans-serif" stroke="none">EJB</text>
      <path fill="none" d="M691 242 L691 323" clip-path="url(#clipPath2)"/>
      <path d="M691 331 L696 319 L691 322 L686 319 Z" clip-path="url(#clipPath2)" stroke="none"/>
      <text x="642.5312" xml:space="preserve" y="290.6543" clip-path="url(#clipPath2)" font-family="sans-serif" stroke="none">action</text>
      <path fill="none" d="M655 236.3947 L563.4634 271.7247" clip-path="url(#clipPath2)"/>
      <path d="M556 274.6053 L568.9955 274.949 L564.3963 271.3646 L565.3947 265.6198 Z" clip-path="url(#clipPath2)" stroke="none"/>
      <text x="565.033" xml:space="preserve" y="234.9939" clip-path="url(#clipPath2)" font-family="sans-serif" stroke="none">get/set</text>
      <path fill="none" d="M556 301.5526 L647.4791 334.7205" clip-path="url(#clipPath2)"/>
      <path d="M655 337.4474 L645.4229 328.6565 L646.5389 334.3796 L642.0143 338.0576 Z" clip-path="url(#clipPath2)" stroke="none"/>
      <text x="572.1678" xml:space="preserve" y="349.455" clip-path="url(#clipPath2)" font-family="sans-serif" stroke="none">inject</text>
      <path fill="none" d="M373 338.3033 L476.423 303.2638" clip-path="url(#clipPath2)"/>
      <path d="M484 300.6967 L471.0302 299.8117 L475.4759 303.5847 L474.239 309.2829 Z" clip-path="url(#clipPath2)" stroke="none"/>
      <text x="424.5393" xml:space="preserve" y="348.3544" clip-path="url(#clipPath2)" font-family="sans-serif" stroke="none">produce</text>
      <path fill="none" d="M727 236.3947 L818.5366 271.7247" clip-path="url(#clipPath2)"/>
      <path d="M826 274.6053 L816.6053 265.6198 L817.6037 271.3646 L813.0045 274.949 Z" clip-path="url(#clipPath2)" stroke="none"/>
      <text x="769.6099" xml:space="preserve" y="228.6407" clip-path="url(#clipPath2)" font-family="sans-serif" stroke="none">get</text>
      <path fill="none" d="M826 301.5526 L734.5209 334.7205" clip-path="url(#clipPath2)"/>
      <path d="M727 337.4474 L739.9857 338.0576 L735.4611 334.3796 L736.5771 328.6565 Z" clip-path="url(#clipPath2)" stroke="none"/>
      <text x="776.8732" xml:space="preserve" y="349.455" clip-path="url(#clipPath2)" font-family="sans-serif" stroke="none">inject</text>
      <path fill="none" d="M985 336.4622 L905.4534 305.4441" clip-path="url(#clipPath2)"/>
      <path d="M898 302.5378 L907.3636 311.5557 L906.3851 305.8074 L910.9966 302.2389 Z" clip-path="url(#clipPath2)" stroke="none"/>
      <text x="938.1755" xml:space="preserve" y="299.73" clip-path="url(#clipPath2)" font-family="sans-serif" stroke="none">produce</text>
      <path fill="none" d="M520 449 L520 312" clip-path="url(#clipPath2)"/>
      <path d="M520 304 C522.2092 304 524 305.7909 524 308 C524 310.2091 522.2092 312 520 312 C517.7908 312 516 310.2091 516 308 C516 305.7909 517.7908 304 520 304 Z" clip-path="url(#clipPath2)" stroke="none"/>
      <text x="512.749" xml:space="preserve" y="382.6543" clip-path="url(#clipPath2)" font-family="sans-serif" stroke="none">may contain</text>
      <path fill="none" d="M337 370 L337 441" clip-path="url(#clipPath2)"/>
      <path d="M337 449 L342 437 L337 440 L332 437 Z" clip-path="url(#clipPath2)" stroke="none"/>
      <text x="296.6904" xml:space="preserve" y="413.6543" clip-path="url(#clipPath2)" font-family="sans-serif" stroke="none">call</text>
      <path fill="none" d="M484 468.5 L381 468.5" clip-path="url(#clipPath2)"/>
      <path d="M373 468.5 L385 473.5 L382 468.5 L385 463.5 Z" clip-path="url(#clipPath2)" stroke="none"/>
      <text x="417.8799" xml:space="preserve" y="502.6543" clip-path="url(#clipPath2)" font-family="sans-serif" stroke="none">use</text>
      <path fill="none" d="M691 370 L691 441" clip-path="url(#clipPath2)"/>
      <path d="M691 449 L696 437 L691 440 L686 437 Z" clip-path="url(#clipPath2)" stroke="none"/>
      <text x="650.6904" xml:space="preserve" y="413.6543" clip-path="url(#clipPath2)" font-family="sans-serif" stroke="none">call</text>
      <path fill="none" d="M556 468.5 L647 468.5" clip-path="url(#clipPath2)"/>
      <path d="M655 468.5 L643 463.5 L646 468.5 L643 473.5 Z" clip-path="url(#clipPath2)" stroke="none"/>
      <text x="594.8799" xml:space="preserve" y="502.6543" clip-path="url(#clipPath2)" font-family="sans-serif" stroke="none">use</text>
      <path fill="none" d="M1021 370 L1021 441" clip-path="url(#clipPath2)"/>
      <path d="M1021 449 L1026 437 L1021 440 L1016 437 Z" clip-path="url(#clipPath2)" stroke="none"/>
      <text x="980.6904" xml:space="preserve" y="413.6543" clip-path="url(#clipPath2)" font-family="sans-serif" stroke="none">call</text>
    </g>
  </g>
</svg>
